<svg width="375" height="516" viewBox="0 0 375 516" fill="none" xmlns="http://www.w3.org/2000/svg">
<path d="M0 0H375V516H0V0Z" fill="#730D56"/>
<path d="M0 0H375V516H0V0Z" fill="#730D56"/>
<path d="M324.429 389.232H375V516H-73V399.24H-52.1766V329.74H-35.5179V380.892H28.1421V303.608H65.6242V432.044H86.4475V399.24V338.08H138.208V380.892H169.741V351.424H252.44V389.232H269.693V318.62H294.59V238H299.45V318.62H324.429V389.232Z" fill="#87276C"/>
<path d="M332.556 430.272H375V516H-1V437.04H16.4768V390.04H30.4582V424.632H83.8871V372.368H115.345V459.224H132.822V437.04V395.68H176.264V424.632H202.729V404.704H272.137V430.272H286.618V382.52H308.588V328H312.583V382.52H332.556V430.272Z" fill="#570941"/>
</svg>
